<?xml version="1.0" encoding="UTF-8" standalone="no"?>
<svg width="16px" height="15px" viewBox="0 0 16 15" version="1.1" xmlns="http://www.w3.org/2000/svg" xmlns:xlink="http://www.w3.org/1999/xlink">
    <!-- Generator: sketchtool 39.1 (31720) - http://www.bohemiancoding.com/sketch -->
    <title>linked-in</title>
    <desc>Created with sketchtool.</desc>
    <defs></defs>
    <g id="iBrands-Patterns-01" stroke="none" stroke-width="1" fill="none" fill-rule="evenodd">
        <g id="Atoms" transform="translate(-695.000000, -5895.000000)" fill="#FFFFFF">
            <g id="icon_in" transform="translate(695.000000, 5895.000000)">
                <polygon id="Path" points="3.34668817 15 3.34668817 4.55128205 0.111668218 4.55128205 0.111668218 15"></polygon>
                <path d="M1.72917819,0 C0.68630992,0 0.0052530879,0.705128205 0.0265361139,1.64529915 C0.0052530879,2.54273504 0.68630992,3.26923077 1.70789517,3.26923077 C2.77204647,3.26923077 3.4531033,2.54273504 3.4531033,1.64529915 C3.43182028,0.705128205 2.77204647,0 1.72917819,0 L1.72917819,0 Z" id="Path"></path>
                <path d="M5.94321734,15 L9.1782373,15 L9.1782373,8.97435897 C9.1782373,8.67521368 9.22080335,8.35470085 9.30593545,8.16239316 C9.51876571,7.56410256 10.0508414,6.94444444 10.9447285,6.94444444 C12.1152949,6.94444444 12.5835215,7.86324786 12.5835215,9.20940171 L12.5835215,15 L15.8185414,15 L15.8185414,8.8034188 C15.8185414,5.72649573 14.2223145,4.31623932 12.0940119,4.31623932 C10.3700868,4.31623932 9.30593545,5.32051282 8.88027493,5.98290598 L8.81642586,5.98290598 L8.66744467,4.55128205 L5.85808524,4.55128205 C5.90065129,5.47008547 5.94321734,6.58119658 5.94321734,7.88461538 L5.94321734,15 Z" id="Path"></path>
            </g>
        </g>
    </g>
</svg>
