<?xml version="1.0" encoding="UTF-8" standalone="no"?>
<svg width="18px" height="15px" viewBox="0 0 18 15" version="1.1" xmlns="http://www.w3.org/2000/svg" xmlns:xlink="http://www.w3.org/1999/xlink">
    <!-- Generator: sketchtool 39.1 (31720) - http://www.bohemiancoding.com/sketch -->
    <title>C15D7224-5C0C-48F6-A2C1-3935744B386A</title>
    <desc>Created with sketchtool.</desc>
    <defs></defs>
    <g id="iBrands-Patterns-01" stroke="none" stroke-width="1" fill="none" fill-rule="evenodd">
        <g id="Atoms" transform="translate(-642.000000, -5895.000000)" fill="#FFFFFF">
            <path d="M645.866877,5898.54608 C648.711795,5899.93081 651.116077,5899.85092 651.116077,5899.85092 C651.116077,5899.85092 650.204599,5896.78854 653.021896,5895.43043 C655.839192,5894.07233 657.777897,5896.36205 657.777897,5896.36205 C657.777897,5896.36205 658.269245,5896.23201 658.635348,5896.10197 C659.001451,5895.97193 659.531337,5895.73971 659.531337,5895.73971 L658.663199,5897.23369 L660,5897.09707 C660,5897.09707 659.835236,5897.32933 659.300226,5897.8024 C658.765215,5898.27547 658.544712,5898.51987 658.544712,5898.51987 C658.544712,5898.51987 658.735832,5902.20606 656.721755,5905.04408 C654.707678,5907.88211 652.105373,5909.58541 648.325107,5909.9439 C644.54484,5910.30239 642.082862,5908.82547 642.082862,5908.82547 C642.082862,5908.82547 643.736159,5908.7345 644.789676,5908.34613 C645.843193,5907.95777 647.358387,5906.93477 647.358387,5906.93477 C647.358387,5906.93477 645.203984,5906.29567 644.430609,5905.57667 C643.657233,5904.85768 643.463889,5904.43161 643.463889,5904.43161 L645.590672,5904.40498 C645.590672,5904.40498 643.353407,5903.25991 642.718134,5902.35451 C642.082862,5901.44911 642,5900.57033 642,5900.57033 L643.63509,5901.20692 C643.63509,5901.20692 642.276206,5899.42527 642.082862,5898.04054 C641.889518,5896.65581 642.331447,5895.91018 642.331447,5895.91018 C642.331447,5895.91018 643.02196,5897.16135 645.866877,5898.54608 Z" id="icon_tw"></path>
        </g>
    </g>
</svg>