<?xml version="1.0" encoding="UTF-8" standalone="no"?>
<svg width="25px" height="16px" viewBox="0 0 25 16" version="1.1" xmlns="http://www.w3.org/2000/svg" xmlns:xlink="http://www.w3.org/1999/xlink">
    <!-- Generator: sketchtool 39.1 (31720) - http://www.bohemiancoding.com/sketch -->
    <title>google-plus</title>
    <desc>Created with sketchtool.</desc>
    <defs></defs>
    <g id="iBrands-Patterns-01" stroke="none" stroke-width="1" fill="none" fill-rule="evenodd">
        <g id="Atoms" transform="translate(-746.000000, -5895.000000)" fill="#FFFFFF">
            <g id="icon_g" transform="translate(746.000000, 5895.000000)">
                <path d="M0.234036926,7.76303167 C0.0805461237,3.77623905 3.61759033,0.0922644354 7.65942472,0.0442404326 C9.71966042,-0.129179577 11.7236882,0.660815268 13.2826467,1.94919254 C12.6432819,2.64313938 11.9928376,3.32961582 11.2972648,3.97207026 C9.92530567,3.14872541 8.27257724,2.52121177 6.66849026,3.07855701 C4.08130551,3.80585385 2.51478054,6.82176122 3.47193621,9.32087696 C4.26452164,11.9307147 7.47999181,13.363164 9.99988923,12.2666159 C11.3048313,11.8053187 12.164704,10.6167246 12.542486,9.33928616 C11.0467614,9.30993816 9.55130695,9.32834736 8.05585255,9.28779376 C8.05206933,8.40922131 8.0482861,7.53411726 8.05206933,6.65554481 C10.5457544,6.65207641 13.0434929,6.64460601 15.5409612,6.66675041 C15.694452,8.81875933 15.372878,11.1223107 13.9557904,12.8498408 C12.0152667,15.3158733 8.42958103,16.0394349 5.51325579,15.0722849 C2.41749764,14.0680496 0.166749585,10.9894443 0.234036926,7.76303167" id="Fill-23"></path>
                <path d="M20.4637484,4.41069485 L22.662153,4.41069485 C22.6658913,5.12760771 22.673101,5.84816634 22.6768393,6.56533962 C23.411955,6.57237073 24.1510761,6.57601649 24.8861919,6.57966225 L24.8861919,8.7270155 C24.1510761,8.73066127 23.411955,8.73430703 22.6768393,8.73795279 C22.6693626,9.45851142 22.6658913,10.1756847 22.662153,10.8962433 C21.9267703,10.8925976 21.1916545,10.8962433 20.4600101,10.8962433 C20.4528005,10.1756847 20.4528005,9.45851142 20.4453238,8.74159855 C19.7102081,8.73430703 18.971087,8.73066127 18.2359713,8.7270155 L18.2359713,6.57966225 C18.971087,6.57601649 19.7064697,6.57237073 20.4453238,6.56533962 C20.4490621,5.84816634 20.4565388,5.12760771 20.4637484,4.41069485" id="Fill-24"></path>
            </g>
        </g>
    </g>
</svg>
