<?xml version="1.0" encoding="UTF-8" standalone="no"?>
<svg width="15px" height="19px" viewBox="0 0 15 19" version="1.1" xmlns="http://www.w3.org/2000/svg" xmlns:xlink="http://www.w3.org/1999/xlink">
    <!-- Generator: sketchtool 39.1 (31720) - http://www.bohemiancoding.com/sketch -->
    <title>841B6FBD-A23C-4560-9DC5-8412E26BB92B</title>
    <desc>Created with sketchtool.</desc>
    <defs></defs>
    <g id="iBrands-Patterns-01" stroke="none" stroke-width="1" fill="none" fill-rule="evenodd">
        <g id="Atoms" transform="translate(-807.000000, -5894.000000)" fill="#FFFFFF">
            <path d="M807,5900.81735 C807,5902.69517 807.725175,5904.36491 809.279563,5904.98715 C809.533993,5905.08918 809.7637,5904.99119 809.836836,5904.71341 C809.88834,5904.52249 810.009889,5904.03864 810.064483,5903.83763 C810.138649,5903.56489 810.109806,5903.46792 809.903791,5903.23054 C809.455707,5902.71134 809.169345,5902.04061 809.169345,5901.08907 C809.169345,5898.33143 811.272765,5895.86267 814.649361,5895.86267 C817.637618,5895.86267 819.279563,5897.65363 819.279563,5900.0446 C819.279563,5903.19115 817.860115,5905.84778 815.751545,5905.84778 C814.586527,5905.84778 813.71508,5904.90331 813.995262,5903.7447 C814.329007,5902.36284 814.976926,5900.87089 814.976926,5899.87187 C814.976926,5898.97993 814.487639,5898.23344 813.476102,5898.23344 C812.286362,5898.23344 811.329419,5899.44257 811.329419,5901.05877 C811.329419,5902.0891 811.684796,5902.78609 811.684796,5902.78609 C811.684796,5902.78609 810.466213,5907.84682 810.252987,5908.73372 C809.827565,5910.49841 810.189122,5912.6621 810.220025,5912.88029 C810.238566,5913.00958 810.407499,5913.03989 810.484755,5912.94292 C810.593943,5912.80251 812.011331,5911.0863 812.493407,5909.37212 C812.630408,5908.88624 813.277297,5906.37103 813.277297,5906.37103 C813.663576,5907.09428 814.792542,5907.73268 815.994644,5907.73268 C819.573136,5907.73268 822,5904.53361 822,5900.25168 C822,5897.01422 819.204368,5894 814.954265,5894 C809.666873,5894 807,5897.71828 807,5900.81735 Z" id="icon_pinterest"></path>
        </g>
    </g>
</svg>